<?xml version="1.0" encoding="utf-8"?>
<!-- Generator: Adobe Illustrator 28.0.0, SVG Export Plug-In . SVG Version: 6.00 Build 0)  -->
<svg version="1.1" id="Capa_1" xmlns="http://www.w3.org/2000/svg" xmlns:xlink="http://www.w3.org/1999/xlink" x="0px" y="0px"
	 viewBox="0 0 334 500" style="enable-background:new 0 0 334 500;" xml:space="preserve">
<style type="text/css">
	.st0{clip-path:url(#SVGID_00000052065134486624456080000007818107457320773310_);}
	.st1{clip-path:url(#SVGID_00000036937266723115707840000011314332776353608324_);fill:#FFFFFF;}
</style>
<g id="Ilustración_2_00000107555726269249453560000004485467332939871618_">
	<g>
		<defs>
			<rect id="SVGID_1_" x="10.3" y="3" width="318.1" height="493"/>
		</defs>
		<clipPath id="SVGID_00000005250552735980032520000005415990001497003451_">
			<use xlink:href="#SVGID_1_"  style="overflow:visible;"/>
		</clipPath>
		<g style="clip-path:url(#SVGID_00000005250552735980032520000005415990001497003451_);">
			<defs>
				<rect id="SVGID_00000039819399137211153430000017212021705653714564_" x="10.3" y="3" width="318.1" height="493"/>
			</defs>
			<clipPath id="SVGID_00000107561428181224768840000008931804720324247996_">
				<use xlink:href="#SVGID_00000039819399137211153430000017212021705653714564_"  style="overflow:visible;"/>
			</clipPath>
			<path style="clip-path:url(#SVGID_00000107561428181224768840000008931804720324247996_);fill:#FFFFFF;" d="M207.8,367.7l9.7-5.6
				l-11-3l-1.7,6.4c-3-2.1-6-4.2-8.9-6.4c1-0.7,2-1.4,2.9-2.1l7.7,2.1l2.9-10.9l10.9-2.9l-2.1-7.7c0.6-0.9,1.3-1.7,1.9-2.6
				c0.4,0.4,0.8,0.7,1.3,1c1.1,0.6,2.3,0.9,3.5,0.9c1.1,0,2.3-0.3,3.3-0.8c0.1,0.1,0.2,0.2,0.6,0.4l3.6,2.1c0.4,0.2,1,0.1,1.2-0.3
				l3-5.1c0.2-0.4,0.1-1-0.3-1.2l-3.6-2.1c-0.4-0.2-0.6-0.3-0.7-0.3c-0.1-2.3-1.3-4.6-3.5-5.9c-0.5-0.3-1-0.5-1.5-0.6
				c0.5-1.1,1-2.2,1.5-3.3l7.7-2.1l-2.9-10.9l8-8l-5.6-5.6c0.1-1.1,0.2-2.2,0.3-3.3c0.5,0.1,1.1,0.2,1.6,0.2c2.5,0,4.7-1.3,6-3.3
				c0.1,0,0.3,0.1,0.7,0.1h4.1c0.5,0,0.9-0.4,0.9-0.9v-5.9c0-0.5-0.4-0.9-0.9-0.9h-4.1c-0.4,0-0.6,0-0.7,0.1c-1.3-2-3.5-3.3-6-3.3
				c-0.5,0-1.1,0.1-1.6,0.2c-0.1-1.2-0.2-2.4-0.3-3.6l5.6-5.6l-8-8l2.9-10.9l-7.6-2c-0.4-1-0.9-2-1.4-3c0.5-0.2,1-0.4,1.5-0.6
				c2.2-1.3,3.4-3.5,3.5-5.8c0.1,0,0.3-0.1,0.7-0.3l3.6-2.1c0.4-0.2,0.6-0.8,0.3-1.2l-3-5.1c-0.2-0.4-0.8-0.6-1.2-0.3l-3.6,2.1
				c-0.4,0.2-0.5,0.3-0.6,0.4c-2.1-1.1-4.7-1.1-6.8,0.1c-0.5,0.3-0.9,0.6-1.3,1c-0.7-1-1.4-2-2.1-3l2.1-7.7l-10.9-2.9l-2.9-10.9
				l-7.7,2.1c-0.9-0.6-1.7-1.3-2.6-1.9c0.4-0.4,0.7-0.8,1-1.3c0.9-1.6,1.2-3.5,0.7-5.4c-0.1-0.5-0.3-1-0.6-1.5
				c0.1-0.1,0.2-0.3,0.4-0.6l2.1-3.6c0.2-0.4,0.1-1-0.3-1.2l-5.1-3c-0.4-0.2-1-0.1-1.2,0.3l-2.1,3.6c-0.2,0.4-0.3,0.6-0.3,0.7
				c-2.3,0.1-4.6,1.3-5.9,3.5c-0.3,0.5-0.5,1-0.6,1.5c-1.1-0.5-2.2-1-3.3-1.5l-2.1-7.7l-10.9,2.9l-8-8l-5.6,5.6
				c-1.1-0.1-2.2-0.2-3.2-0.3c0.1-0.5,0.2-1.1,0.2-1.6c0-2.5-1.3-4.7-3.3-6c0-0.1,0.1-0.3,0.1-0.7v-4.1c0-0.5-0.4-0.9-0.9-0.9h-5.9
				c-0.5,0-0.9,0.4-0.9,0.9v4.1c0,0.4,0,0.6,0.1,0.7c-2,1.3-3.3,3.5-3.3,6c0,0.5,0.1,1.1,0.2,1.6c-1.2,0.1-2.4,0.2-3.6,0.3l-5.6-5.6
				l-8,8l-10.9-2.9l-2,7.6c-1,0.4-2,0.9-3,1.4c-0.2-0.5-0.4-1-0.7-1.5c-0.9-1.6-2.5-2.8-4.3-3.3c-0.5-0.1-1-0.2-1.6-0.2
				c0-0.1-0.1-0.3-0.3-0.7l-2.1-3.6c-0.2-0.4-0.8-0.6-1.2-0.3l-5.1,3c-0.4,0.2-0.6,0.8-0.3,1.2l2.1,3.6c0.2,0.4,0.3,0.5,0.4,0.6
				c-1.1,2.1-1.1,4.7,0.1,6.8c0.3,0.5,0.6,0.9,1,1.3c-1,0.7-2,1.4-3,2.1l-7.7-2.1l-2.8,10.6c-2.3-4.4-4.6-8.8-6.8-13.2l9.6,2.6
				l2.9-11l3.1-10.9l10.6,2.9l0,0l11,3l3-11l-13.5,7.8l-11.1-3.1l2.9-10.9l-14,8.1l10.9,2.9L84.2,196l-12.6,7.3
				C21.2,101.4,10.3,3,10.3,3v473.3c0,0,81.4-51.9,318.1-58C281.8,408.9,242,391,207.8,367.7 M237.6,278.5c-0.5,0-1,0.1-1.5,0.2
				c0-0.7-0.1-1.5-0.1-2.2c0.5-0.1,1-0.2,1.6-0.2c3.7,0,6.7,3,6.7,6.7c0,3.7-3,6.7-6.7,6.7c-0.5,0-1.1-0.1-1.6-0.2
				c0.1-0.7,0.1-1.5,0.1-2.2c0.5,0.2,1,0.2,1.5,0.2c2.5,0,4.6-2.1,4.6-4.6C242.2,280.6,240.2,278.5,237.6,278.5 M209.3,348.2
				l-0.5,0.3c0.2-0.2,0.5-0.5,0.7-0.7L209.3,348.2z M228.4,324c3.2,1.9,4.3,6,2.5,9.2c-0.9,1.6-2.4,2.7-4.1,3.1
				c-1.7,0.5-3.6,0.2-5.1-0.7c-0.5-0.3-0.9-0.6-1.3-1c0.4-0.6,0.8-1.2,1.2-1.8c0.3,0.4,0.7,0.7,1.2,1c2.2,1.3,5,0.5,6.3-1.7
				c1.3-2.2,0.5-5-1.7-6.3c-0.4-0.3-0.9-0.4-1.4-0.5c0.3-0.7,0.7-1.3,1-2C227.4,323.6,227.9,323.8,228.4,324 M233.2,306.8l-0.2,0.3
				c0.1-0.2,0.1-0.4,0.2-0.6V306.8z M233.2,259.1v0.3c-0.1-0.2-0.1-0.4-0.2-0.6L233.2,259.1z M221.8,230.5c3.2-1.9,7.3-0.8,9.2,2.5
				c1.9,3.2,0.8,7.3-2.5,9.2c-0.5,0.3-1,0.5-1.5,0.6c-0.3-0.7-0.6-1.3-1-2c0.5-0.1,1-0.3,1.4-0.5c2.2-1.3,3-4.1,1.7-6.3
				c-1.3-2.2-4.1-3-6.3-1.7c-0.4,0.3-0.8,0.6-1.2,1c-0.4-0.6-0.8-1.2-1.2-1.8C220.9,231.1,221.3,230.8,221.8,230.5 M209.3,217.7
				l0.3,0.5c-0.2-0.2-0.5-0.5-0.7-0.7L209.3,217.7z M185.2,198.7c1.9-3.2,6-4.3,9.2-2.5c1.6,0.9,2.7,2.4,3.1,4.1
				c0.5,1.7,0.2,3.6-0.7,5.1c-0.3,0.5-0.6,0.9-1,1.3c-0.6-0.4-1.2-0.8-1.8-1.2c0.4-0.3,0.7-0.7,1-1.2c1.3-2.2,0.5-5-1.7-6.3
				c-2.2-1.3-5-0.5-6.3,1.7c-0.3,0.4-0.4,0.9-0.5,1.4c-0.6-0.3-1.3-0.7-2-1C184.7,199.6,184.9,199.2,185.2,198.7 M168,193.8l0.3,0.2
				c-0.2-0.1-0.4-0.1-0.6-0.2H168z M144.3,182.7c3.7,0,6.7,3,6.7,6.7c0,0.5-0.1,1.1-0.2,1.6c-0.7-0.1-1.5-0.1-2.2-0.1
				c0.2-0.5,0.2-1,0.2-1.5c0-2.5-2.1-4.6-4.6-4.6s-4.6,2.1-4.6,4.6c0,0.5,0.1,1,0.2,1.5c-0.7,0-1.5,0.1-2.2,0.1
				c-0.1-0.5-0.2-1-0.2-1.6C137.5,185.7,140.5,182.7,144.3,182.7 M120.2,193.8h0.3c-0.2,0.1-0.4,0.1-0.6,0.2L120.2,193.8z
				 M91.6,205.2c-1.9-3.2-0.8-7.3,2.5-9.2c1.6-0.9,3.4-1.1,5.1-0.7c1.7,0.5,3.2,1.6,4.1,3.1c0.3,0.5,0.5,1,0.6,1.5
				c-0.7,0.3-1.3,0.6-2,1c-0.1-0.5-0.3-1-0.5-1.4c-1.3-2.2-4.1-3-6.3-1.7c-2.2,1.3-3,4.1-1.7,6.3c0.3,0.4,0.6,0.8,1,1.2
				c-0.6,0.4-1.2,0.8-1.8,1.2C92.3,206.1,91.9,205.7,91.6,205.2 M144.1,197.8c46.9,0,85.1,38.2,85.1,85.1
				c0,30.1-15.7,56.5-39.2,71.7c-46.6-36.5-81.5-83.1-107.4-130.4C98,208,119.9,197.8,144.1,197.8 M79.3,217.5
				c-0.1,0.1-0.2,0.2-0.3,0.3c0,0,0-0.1,0-0.1L79.3,217.5z M136.1,177.8l-8,8l-8.1-8.1h15.6l8.4-8.2l-7.9-7.9h16.1l-7.9,7.9l8,8.2
				h15.6l-8.1,8.1l-8.1-8.1h0l-7.7-7.8L136.1,177.8z M239.2,328.7l-2.9-11l11-3l-7.8,13.6l2.9,11.4l10.9-2.9l-8.1,14l-2.9-10.9
				l-11.1,2.9l-7.8,13.5l-3-11l11-3l0,0l10.6-2.7L239.2,328.7z M249.3,275l-8-8l8.1-8.1v15.6l8.2,8.4l7.9-7.9v16.1l-7.9-7.9l-8.2,8
				v15.6l-8.1-8.1l8.1-8.1v0l7.8-7.7L249.3,275z M231.2,223.5l-10.9-2.9l3-11l7.8,13.6l11.3,3.2l2.9-10.9l8.1,14l-10.9-2.9
				l-3.1,11.1l7.8,13.5l-11-3l3-11l0,0l2.9-10.6L231.2,223.5z M189.8,187.9l-10.9,2.9l-3-11l13.6,7.8l11.4-2.9l-2.9-10.9l14,8.1
				l-10.9,2.9l2.9,11.1l13.5,7.8l-11,3l-3-11l0,0l-2.7-10.6L189.8,187.9z M86.6,494.1v-1.8c9.4-1.8,9.8-2.7,10-15.6l0.4-53.4
				c-10,22.5-29,65.4-31,70.8h-1.7c-2-5.2-17.2-42.7-28.3-69c-1.7,41.7-1.8,53.6-1.8,58.1c0.2,6.1,2.6,7.7,12.2,9.1v1.8H17.7v-1.8
				c8.8-1.2,10.5-3.4,11.2-8.9c0.6-4.5,1-11.5,3.8-60c0.2-3.8-0.7-7.9-11.7-9.1v-1.8h23l26.8,60.8l28-60.8h22.2v1.8
				c-10.6,1.8-11.5,2.8-11.4,14.5l0.4,47.9c0.1,12.6,0.8,13.8,11,15.6v1.8H86.6z M219.8,436c6.5-3.2,9.5-6.4,9.5-10.3
				c0-3.8-3.6-5.5-7.8-6.2c-1.2-0.2-2-1.5-2-3.5c0-2.7,2-5.3,6.3-5.3c4.7,0,9.3,4,9.3,11.2c0,7.8-7,13.6-14.6,16L219.8,436z
				 M265.7,494.1v-1.8c8.1-1.7,8.8-2.9,6.8-8.7c-1.6-4.6-4-12-7.1-20.3h-23.8c-2.4,6.6-4.5,12.5-6.1,17.5c-2.8,8.5-1.5,9.5,8.9,11.5
				v1.8h-26.9v-1.8c7.9-1.3,9.7-2.7,14.1-14.1l26-66.8l2.8-0.4c7.9,22.5,16,44.7,24.4,67.2c4.2,11.7,5.6,12.5,13.3,14.2v1.8H265.7z
				 M253.9,429.8c-3.9,10.5-7.1,19.9-10.8,29.6h21L253.9,429.8z M40.9,287.7v49h-7.3v-49H19.7l0.7-6.6h33.7l0.7,6.6H40.9z M27,374.7
				h15.1l-0.7,7.7H27v18.3h-7.2V345h26l0.7,7.5H27V374.7z M89.4,400.6h-8l-3.2-8.3H57.8l-3.2,8.3h-7.8L68.2,344L89.4,400.6z
				 M75.5,385l-7.5-20.2L60.4,385L75.5,385z M147.2,393.2h19.5l-0.7,7.4h-26.1V345H166l0.7,7.5h-19.5v22.2h16.7l-0.7,7.7h-15.9
				V393.2z M170.4,410.7c21.8,0,40.4,17.3,40.4,41.7c0,26.3-18.4,43.6-41,43.6c-23.6,0-41-18.6-41-41.9
				C128.8,432.2,144.3,410.7,170.4,410.7 M167.9,413.7c-13.1,0-23.7,12.6-23.7,37.3c0,23.9,10.7,42,27.9,42
				c13.4,0,23.2-12.7,23.2-37.1C195.4,429.3,184.3,413.7,167.9,413.7 M70.6,329.3h19.5l-0.7,7.4H63.3v-55.6h26.1l0.7,7.5H70.6v22.2
				h16.7l-0.7,7.7H70.6V329.3z M122.5,400.6l-7.5-18.8c-0.6,0.1-1.2,0.2-1.8,0.2h-9.3v18.7h-7.3V345h16.4c8.9,0,17.5,7.9,17.5,18.4
				c0,6-2.8,11.7-8.2,15.6l8.3,21.6H122.5z M113.1,374.9c5.7,0,10.3-5.2,10.3-11.5c0-5.8-4.3-11.4-10.3-11.4h-9.2v22.8H113.1z"/>
		</g>
	</g>
</g>
</svg>
